<?xml version="1.0" encoding="UTF-8"?>
<svg width="115px" height="30px" viewBox="0 0 115 30" version="1.1" xmlns="http://www.w3.org/2000/svg" xmlns:xlink="http://www.w3.org/1999/xlink">
    <!-- Generator: Sketch 52.2 (67145) - http://www.bohemiancoding.com/sketch -->
    <title>switch-logo-alt</title>
    <desc>Created with Sketch.</desc>
    <g id="Page-1" stroke="none" stroke-width="1" fill="none" fill-rule="evenodd">
        <g id="Landing" transform="translate(-795.000000, -1155.000000)" fill="#AFB6B7">
            <g id="switch-logo-alt" transform="translate(795.000000, 1155.000000)">
                <path d="M37.7284935,17.7744 L41.7846863,17.7744 C41.7846863,18.459975 41.9784575,18.952125 42.366,19.251 C42.7536176,19.5498 43.2512745,19.6992 43.8590458,19.6992 C44.3610621,19.6992 44.7707026,19.60695 45.0877418,19.422375 C45.4136503,19.229025 45.5766046,18.917025 45.5766046,18.4863 C45.5766046,18.23145 45.5061765,18.0249 45.3652451,17.866725 C45.2331078,17.6997 45.0261078,17.55465 44.7442451,17.43165 C44.4623824,17.2998 44.1012222,17.16795 43.6608399,17.0361 C43.2204575,16.904325 42.6919085,16.7373 42.0753431,16.535175 C41.5204118,16.359375 40.9963725,16.179225 40.5030752,15.99465 C40.0186471,15.8013 39.5914183,15.564 39.2214641,15.28275 C38.851585,15.0015 38.5608529,14.658675 38.3494935,14.254425 C38.1469281,13.8501 38.0456078,13.3491 38.0456078,12.7515 C38.0456078,12.065925 38.1821046,11.472675 38.4551732,10.971675 C38.7282418,10.470675 39.1114248,10.05765 39.6046471,9.73245 C40.0979444,9.40725 40.6880523,9.165525 41.3751209,9.00735 C42.0621144,8.840325 42.8196863,8.75685 43.6476111,8.75685 C44.6605882,8.75685 45.5325588,8.871075 46.2636732,9.0996 C46.9947124,9.328125 47.5936895,9.640125 48.0605294,10.035675 C48.5273693,10.43115 48.870866,10.896975 49.0910948,11.433075 C49.3201176,11.96925 49.4345915,12.54495 49.4345915,13.160175 L45.3520163,13.160175 C45.3520163,12.624 45.211085,12.20655 44.9292222,11.90775 C44.6561536,11.608875 44.2377941,11.459475 43.6740686,11.459475 C43.2424052,11.459475 42.8725261,11.55615 42.5642059,11.7495 C42.2559608,11.934075 42.1018007,12.215325 42.1018007,12.59325 C42.1018007,12.848175 42.1722288,13.05465 42.3131601,13.2129 C42.4628856,13.3623 42.6786797,13.4985 42.9605425,13.621575 C43.2424052,13.74465 43.5903366,13.872075 44.0043366,14.003925 C44.4183366,14.126925 44.8939706,14.2764 45.4313137,14.452125 C46.0126275,14.610375 46.5543301,14.7861 47.0564216,14.979525 C47.5584379,15.172875 47.9988954,15.410175 48.3776438,15.691425 C48.7651863,15.9639 49.0690719,16.311 49.2893007,16.732875 C49.5183235,17.145975 49.6327974,17.673375 49.6327974,18.314925 C49.6327974,19.070775 49.4742778,19.716825 49.1571634,20.252925 C48.840049,20.78025 48.4128954,21.2109 47.8755523,21.54495 C47.3470784,21.878925 46.7305131,22.116225 46.0258562,22.25685 C45.3211993,22.40625 44.5812908,22.48095 43.8061307,22.48095 C41.8771373,22.48095 40.3798072,22.08105 39.3139902,21.28125 C38.2569673,20.472675 37.7284935,19.303725 37.7284935,17.7744 Z" id="Path"></path>
                <polygon id="Path" points="49.2443529 9.1128 53.525134 9.1128 55.9297614 16.864725 58.2287092 9.1128 62.047085 9.1128 64.3460327 16.864725 66.7506601 9.1128 71.0314412 9.1128 66.1561176 22.125 62.8002222 22.125 60.144549 13.83255 57.4756471 22.125 54.1196765 22.125"></polygon>
                <polygon id="Path" points="71.8849967 22.125 71.8849967 9.1128 76.0202614 9.1128 76.0202614 22.125"></polygon>
                <path d="M77.3889869,12.184575 L77.3889869,9.1128 L79.4371895,9.1128 L79.4371895,5.25 L83.5591503,5.25 L83.5591503,9.1128 L86.5318627,9.1128 L86.5318627,12.184575 L83.5591503,12.184575 L83.5591503,16.8384 C83.5591503,17.321775 83.6034967,17.708475 83.6914379,17.9985 C83.7793791,18.27975 83.9026471,18.503925 84.0612418,18.670875 C84.2288562,18.829125 84.4272876,18.934575 84.6557843,18.9873 C84.8940523,19.03125 85.1578758,19.053225 85.4487582,19.053225 C85.6246405,19.053225 85.8493791,19.0488 86.1222222,19.040025 C86.395817,19.022475 86.6333333,18.996075 86.8362745,18.9609 L86.8362745,22.125 C86.5281046,22.177725 86.1402614,22.2261 85.6734967,22.27005 C85.215,22.314 84.6738235,22.3359 84.0484641,22.3359 C83.5636601,22.3359 83.052549,22.3008 82.5158824,22.23045 C81.9784641,22.160175 81.4808824,21.9756 81.0223856,21.676725 C80.5646405,21.377925 80.185817,20.920875 79.8866667,20.30565 C79.5867647,19.68165 79.4371895,18.829125 79.4371895,17.748075 L79.4371895,12.184575 L77.3889869,12.184575 Z" id="Path"></path>
                <path d="M86.8310131,15.6123 C86.8310131,14.715825 86.9760784,13.854525 87.2669608,13.028325 C87.5661111,12.202125 88.0110784,11.472675 88.6011111,10.839825 C89.2001634,10.20705 89.9397712,9.701625 90.8206863,9.3237 C91.7106209,8.945775 92.7411111,8.75685 93.9129085,8.75685 C94.9960131,8.75685 95.9385621,8.910675 96.7398039,9.21825 C97.5417974,9.5259 98.2152614,9.939 98.7616993,10.45755 C99.3164052,10.96725 99.7433333,11.551725 100.043235,12.2109 C100.342386,12.8613 100.51902,13.529325 100.571634,14.214825 L96.4361438,14.214825 C96.3654902,13.6611 96.1279739,13.1997 95.7228431,12.83055 C95.3259804,12.452625 94.7404575,12.2637 93.9655229,12.2637 C93.4281046,12.2637 92.9703595,12.35595 92.5915359,12.540525 C92.2127124,12.716325 91.9000327,12.957975 91.6534967,13.265625 C91.4152288,13.573275 91.2393464,13.929225 91.125098,14.333475 C91.0191176,14.7378 90.9665033,15.1641 90.9665033,15.6123 C90.9665033,16.060575 91.0236275,16.491225 91.1378758,16.904325 C91.2611438,17.308575 91.4415359,17.664525 91.6798039,17.972175 C91.9263399,18.270975 92.2480392,18.5127 92.6441503,18.697275 C93.0402614,18.873075 93.5070261,18.9609 94.0444444,18.9609 C94.7494771,18.9609 95.2823856,18.815925 95.6431699,18.5259 C96.0047059,18.227025 96.277549,17.796375 96.462451,17.233875 L100.597941,17.233875 C100.51,17.972175 100.298791,18.65775 99.9635621,19.290525 C99.629085,19.923375 99.1796078,20.477025 98.6158824,20.951625 C98.0611765,21.4263 97.3877124,21.7998 96.5947386,22.072275 C95.8017647,22.34475 94.9080719,22.48095 93.9129085,22.48095 C92.7411111,22.48095 91.7106209,22.292025 90.8206863,21.9141 C89.9397712,21.5361 89.2001634,21.03075 88.6011111,20.397975 C88.0110784,19.765125 87.5661111,19.035675 87.2669608,18.209475 C86.9760784,17.383275 86.8310131,16.51755 86.8310131,15.6123 Z" id="Path"></path>
                <path d="M101.900523,22.125 L101.900523,5.25 L105.903725,5.25 L105.903725,10.998075 C106.265261,10.3125 106.80719,9.771975 107.52951,9.3765 C108.251078,8.98095 109.128235,8.783175 110.158725,8.783175 C111.004314,8.783175 111.708595,8.915025 112.27232,9.178725 C112.845065,9.44235 113.31183,9.80715 113.672614,10.272975 C114.086765,10.7739 114.364118,11.358375 114.505425,12.0264 C114.655,12.69435 114.730163,13.49415 114.730163,14.4258 L114.730163,22.125 L110.726209,22.125 L110.726209,15.454125 C110.726209,14.540025 110.559346,13.7886 110.224118,13.1997 C109.889641,12.602025 109.299608,12.303225 108.45402,12.303225 C107.591144,12.303225 106.947745,12.602025 106.525327,13.1997 C106.111176,13.7886 105.903725,14.583975 105.903725,15.5859 L105.903725,22.125 L101.900523,22.125 Z" id="Path"></path>
                <path d="M4.79616347e-14,7.5 C4.79616347e-14,3.3578625 3.3651781,0 7.51633987,0 L22.5490196,0 C26.7001438,0 30.0653595,3.3578625 30.0653595,7.5 L30.0653595,22.5 C30.0653595,26.6421 26.7001438,30 22.5490196,30 L7.51633987,30 C3.3651781,30 4.79616347e-14,26.6421 4.79616347e-14,22.5 L4.79616347e-14,7.5 Z M11.2745098,9.75 L11.2745098,19.5 C11.2745098,21.57105 12.9571176,23.25 15.0326797,23.25 C17.1082418,23.25 18.7908497,21.57105 18.7908497,19.5 L18.7908497,9.75 C18.7908497,7.67895 17.1082418,6 15.0326797,6 C12.9571176,6 11.2745098,7.67895 11.2745098,9.75 Z" id="Combined-Shape"></path>
                <path d="M12.7777778,9.75 C12.7777778,8.507325 13.7872974,7.5 15.0326797,7.5 C16.2780621,7.5 17.2875817,8.507325 17.2875817,9.75 C17.2875817,10.992675 16.2780621,12 15.0326797,12 C13.7872974,12 12.7777778,10.992675 12.7777778,9.75 Z" id="Path"></path>
            </g>
        </g>
    </g>
</svg>