<svg width="153" height="40" viewBox="0 0 153 40" fill="none" xmlns="http://www.w3.org/2000/svg">
<path d="M50.1953 23.6992H55.5918C55.5918 24.6133 55.8496 25.2695 56.3652 25.668C56.8809 26.0664 57.543 26.2656 58.3516 26.2656C59.0195 26.2656 59.5645 26.1426 59.9863 25.8965C60.4199 25.6387 60.6367 25.2227 60.6367 24.6484C60.6367 24.3086 60.543 24.0332 60.3555 23.8223C60.1797 23.5996 59.9043 23.4062 59.5293 23.2422C59.1543 23.0664 58.6738 22.8906 58.0879 22.7148C57.502 22.5391 56.7988 22.3164 55.9785 22.0469C55.2402 21.8125 54.543 21.5723 53.8867 21.3262C53.2422 21.0684 52.6738 20.752 52.1816 20.377C51.6895 20.002 51.3027 19.5449 51.0215 19.0059C50.752 18.4668 50.6172 17.7988 50.6172 17.002C50.6172 16.0879 50.7988 15.2969 51.1621 14.6289C51.5254 13.9609 52.0352 13.4102 52.6914 12.9766C53.3477 12.543 54.1328 12.2207 55.0469 12.0098C55.9609 11.7871 56.9688 11.6758 58.0703 11.6758C59.418 11.6758 60.5781 11.8281 61.5508 12.1328C62.5234 12.4375 63.3203 12.8535 63.9414 13.3809C64.5625 13.9082 65.0195 14.5293 65.3125 15.2441C65.6172 15.959 65.7695 16.7266 65.7695 17.5469H60.3379C60.3379 16.832 60.1504 16.2754 59.7754 15.877C59.4121 15.4785 58.8555 15.2793 58.1055 15.2793C57.5312 15.2793 57.0391 15.4082 56.6289 15.666C56.2188 15.9121 56.0137 16.2871 56.0137 16.791C56.0137 17.1309 56.1074 17.4062 56.2949 17.6172C56.4941 17.8164 56.7812 17.998 57.1562 18.1621C57.5312 18.3262 57.9941 18.4961 58.5449 18.6719C59.0957 18.8359 59.7285 19.0352 60.4434 19.2695C61.2168 19.4805 61.9375 19.7148 62.6055 19.9727C63.2734 20.2305 63.8594 20.5469 64.3633 20.9219C64.8789 21.2852 65.2832 21.748 65.5762 22.3105C65.8809 22.8613 66.0332 23.5645 66.0332 24.4199C66.0332 25.4277 65.8223 26.2891 65.4004 27.0039C64.9785 27.707 64.4102 28.2812 63.6953 28.7266C62.9922 29.1719 62.1719 29.4883 61.2344 29.6758C60.2969 29.875 59.3125 29.9746 58.2812 29.9746C55.7148 29.9746 53.7227 29.4414 52.3047 28.375C50.8984 27.2969 50.1953 25.7383 50.1953 23.6992Z" fill="#170E32"/>
<path d="M65.5164 12.1504H71.2117L74.4109 22.4863L77.4695 12.1504H82.5496L85.6082 22.4863L88.8074 12.1504H94.5027L88.0164 29.5H83.5516L80.0184 18.4434L76.4676 29.5H72.0027L65.5164 12.1504Z" fill="#170E32"/>
<path d="M95.6383 29.5V12.1504H101.14V29.5H95.6383Z" fill="#170E32"/>
<path d="M102.961 16.2461V12.1504H105.686V7H111.17V12.1504H115.125V16.2461H111.17V22.4512C111.17 23.0957 111.229 23.6113 111.346 23.998C111.463 24.373 111.627 24.6719 111.838 24.8945C112.061 25.1055 112.325 25.2461 112.629 25.3164C112.946 25.375 113.297 25.4043 113.684 25.4043C113.918 25.4043 114.217 25.3984 114.58 25.3867C114.944 25.3633 115.26 25.3281 115.53 25.2812V29.5C115.12 29.5703 114.604 29.6348 113.983 29.6934C113.373 29.752 112.653 29.7812 111.821 29.7812C111.176 29.7812 110.496 29.7344 109.782 29.6406C109.067 29.5469 108.405 29.3008 107.795 28.9023C107.186 28.5039 106.682 27.8945 106.284 27.0742C105.885 26.2422 105.686 25.1055 105.686 23.6641V16.2461H102.961Z" fill="#170E32"/>
<path d="M115.523 20.8164C115.523 19.6211 115.716 18.4727 116.103 17.3711C116.501 16.2695 117.093 15.2969 117.878 14.4531C118.675 13.6094 119.659 12.9355 120.831 12.4316C122.015 11.9277 123.386 11.6758 124.945 11.6758C126.386 11.6758 127.64 11.8809 128.706 12.291C129.773 12.7012 130.669 13.252 131.396 13.9434C132.134 14.623 132.702 15.4023 133.101 16.2812C133.499 17.1484 133.734 18.0391 133.804 18.9531H128.302C128.208 18.2148 127.892 17.5996 127.353 17.1074C126.825 16.6035 126.046 16.3516 125.015 16.3516C124.3 16.3516 123.691 16.4746 123.187 16.7207C122.683 16.9551 122.267 17.2773 121.939 17.6875C121.622 18.0977 121.388 18.5723 121.236 19.1113C121.095 19.6504 121.025 20.2188 121.025 20.8164C121.025 21.4141 121.101 21.9883 121.253 22.5391C121.417 23.0781 121.657 23.5527 121.974 23.9629C122.302 24.3613 122.73 24.6836 123.257 24.9297C123.784 25.1641 124.405 25.2812 125.12 25.2812C126.058 25.2812 126.767 25.0879 127.247 24.7012C127.728 24.3027 128.091 23.7285 128.337 22.9785H133.839C133.722 23.9629 133.441 24.877 132.995 25.7207C132.55 26.5645 131.952 27.3027 131.202 27.9355C130.464 28.5684 129.568 29.0664 128.513 29.4297C127.458 29.793 126.269 29.9746 124.945 29.9746C123.386 29.9746 122.015 29.7227 120.831 29.2188C119.659 28.7148 118.675 28.041 117.878 27.1973C117.093 26.3535 116.501 25.3809 116.103 24.2793C115.716 23.1777 115.523 22.0234 115.523 20.8164Z" fill="#170E32"/>
<path d="M135.572 29.5V7H140.898V14.6641C141.379 13.75 142.1 13.0293 143.061 12.502C144.021 11.9746 145.188 11.7109 146.559 11.7109C147.684 11.7109 148.621 11.8867 149.371 12.2383C150.133 12.5898 150.754 13.0762 151.234 13.6973C151.785 14.3652 152.154 15.1445 152.342 16.0352C152.541 16.9258 152.641 17.9922 152.641 19.2344V29.5H147.314V20.6055C147.314 19.3867 147.092 18.3848 146.646 17.5996C146.201 16.8027 145.416 16.4043 144.291 16.4043C143.143 16.4043 142.287 16.8027 141.725 17.5996C141.174 18.3848 140.898 19.4453 140.898 20.7812V29.5H135.572Z" fill="#170E32"/>
<path d="M0 10C0 4.47715 4.47715 0 10 0H30C35.5228 0 40 4.47715 40 10V30C40 35.5228 35.5228 40 30 40H10C4.47715 40 0 35.5228 0 30V10Z" fill="#7B42F6"/>
<path d="M15 13C15 10.2386 17.2386 8 20 8C22.7614 8 25 10.2386 25 13V26C25 28.7614 22.7614 31 20 31C17.2386 31 15 28.7614 15 26V13Z" fill="white"/>
<path d="M17 13C17 11.3431 18.3431 10 20 10C21.6569 10 23 11.3431 23 13C23 14.6569 21.6569 16 20 16C18.3431 16 17 14.6569 17 13Z" fill="#7B42F6"/>
</svg>
